# Blender v2.93.5 OBJ File: ''
# www.blender.org
mtllib particle.mtl
o Sphere
v 0.000000 0.500000 -0.866025
v 0.000000 -0.500000 -0.866025
v 0.750000 0.500000 0.433013
v 0.750000 -0.500000 0.433013
v 0.000000 -1.000000 0.000000
v -0.000000 1.000000 0.000000
v -0.750000 0.500000 0.433013
v -0.750000 -0.500000 0.433013
vt 0.500000 0.000000
vt 0.666667 0.333333
vt 0.333333 0.333333
vt 0.666667 0.666667
vt 0.333333 0.666667
vt 0.500000 1.000000
vt 0.166667 0.000000
vt 0.000000 0.333333
vt 0.000000 0.666667
vt 0.166667 1.000000
vt 0.833333 0.000000
vt 1.000000 0.333333
vt 1.000000 0.666667
vt 0.833333 1.000000
vn 0.6547 -0.6547 -0.3780
vn 0.8660 -0.0000 -0.5000
vn 0.6547 0.6547 -0.3780
vn -0.0000 -0.6547 0.7559
vn -0.0000 -0.0000 1.0000
vn -0.0000 0.6547 0.7559
vn -0.6547 -0.6547 -0.3780
vn -0.8660 0.0000 -0.5000
vn -0.6547 0.6547 -0.3780
usemtl None
s off
f 5/1/1 2/2/1 4/3/1
f 2/2/2 1/4/2 3/5/2 4/3/2
f 1/4/3 6/6/3 3/5/3
f 5/7/4 4/3/4 8/8/4
f 4/3/5 3/5/5 7/9/5 8/8/5
f 3/5/6 6/10/6 7/9/6
f 5/11/7 8/12/7 2/2/7
f 8/12/8 7/13/8 1/4/8 2/2/8
f 7/13/9 6/14/9 1/4/9
